<svg width="15" height="15" viewBox="0 0 15 15" fill="none" xmlns="http://www.w3.org/2000/svg">
<g clip-path="url(#clip0_744_989)">
<path d="M2.84279 7.49962C2.84279 6.69131 3.0499 5.93078 3.41363 5.26766L1.36653 3.19141C0.506814 4.41155 0 5.89712 0 7.49962C0 8.64341 0.258216 9.72738 0.718136 10.6983L3.07966 8.96295C2.92695 8.50243 2.84279 8.01095 2.84279 7.49962Z" fill="#FABF15"/>
<path d="M15 7.49937V6.07812H7.5V8.92091H11.9357C11.5614 10.086 10.7396 11.0525 9.67365 11.6173L11.7216 13.6948C13.6993 12.343 15 10.0707 15 7.49967V7.49937Z" fill="#4788F3"/>
<path d="M7.50061 12.1587C5.4439 12.1587 3.6953 10.8177 3.08027 8.96484L0.71875 10.7002C1.92146 13.24 4.50873 15.0015 7.50061 15.0015C9.06524 15.0015 10.5189 14.5194 11.7223 13.6966L9.67426 11.6192C9.02496 11.9633 8.28518 12.1587 7.50061 12.1587Z" fill="#3BA959"/>
<path d="M7.50065 0C4.96779 0 2.7259 1.26343 1.36719 3.19178L3.41428 5.26834C4.20607 3.82425 5.74094 2.84309 7.50065 2.84309C8.48362 2.84309 9.42931 3.1515 10.2172 3.71844C10.3687 3.82756 10.5151 3.94509 10.654 4.07315L12.5799 1.98186C11.192 0.703707 9.38813 0 7.50065 0Z" fill="#E94E42"/>
</g>
<defs>
<clipPath id="clip0_744_989">
<rect width="15" height="15" fill="white"/>
</clipPath>
</defs>
</svg>
