<svg width="16" height="16" viewBox="0 0 24 24" fill="currentColor" xmlns="http://www.w3.org/2000/svg">
  <path fill-rule="evenodd" clip-rule="evenodd" d="M6.85714 0C8.2878 0 9.6162 0.44463 10.7154 1.20515C11.1897 1.53331 11.6213 1.92028 12 2.35573C12.3787 1.92028 12.8103 1.53331 13.2846 1.20515C14.3838 0.44463 15.7122 0 17.1429 0C20.93 0 24 3.11539 24 6.95841C24 11.6204 21.2697 16.1581 12.6855 23.7523C12.2987 24.0945 11.7153 24.0802 11.3435 23.7212C3.57029 16.2161 0 12.4596 0 6.95841C0 3.11539 3.07005 0 6.85714 0ZM10.5005 3.69874L11.2455 4.55523C11.6441 5.01354 12.3559 5.01354 12.7545 4.55523L13.4995 3.69874C14.3924 2.67212 15.6924 2.02954 17.1429 2.02954C19.8254 2.02954 22 4.23627 22 6.95841C22 10.4335 20.1642 14.1947 12.7507 20.9817C12.3631 21.3366 11.7656 21.3258 11.389 20.9593C8.1819 17.8384 5.90173 15.4961 4.36637 13.3837C2.6874 11.0736 2 9.1716 2 6.95841C2 4.23627 4.17462 2.02954 6.85714 2.02954C8.3076 2.02954 9.6076 2.67212 10.5005 3.69874Z" fill="currentColor"/>
</svg>
